<svg width="22" height="20" viewBox="0 0 22 20" fill="none" xmlns="http://www.w3.org/2000/svg">
<path d="M8.61005 19.763L13.5406 12L17.4253 18.117C15.5551 19.3443 13.3064 20.0033 11 20C10.1795 20 9.37993 19.918 8.61005 19.763ZM6.47966 19.12C5.06658 18.5391 3.80412 17.6938 2.77468 16.6393C1.74524 15.5847 0.971964 14.3447 0.505323 13H10.3654L6.47966 19.119V19.12ZM0.0565878 11C-0.100806 9.59725 0.0710397 8.18011 0.560765 6.84224C1.05049 5.50436 1.84694 4.27623 2.89748 3.23901L7.82366 11H0.0565878ZM4.57583 1.88301C6.44569 0.655891 8.69395 -0.00309878 11 1.09555e-05C11.8205 1.09555e-05 12.6201 0.0820108 13.39 0.237011L8.45937 8L4.57583 1.88301ZM15.5203 0.88001C16.9334 1.46089 18.1959 2.30619 19.2253 3.36073C20.2548 4.41527 21.028 5.65534 21.4947 7H11.6346L15.5203 0.88101V0.88001ZM21.9434 9C22.1008 10.4027 21.929 11.8199 21.4392 13.1578C20.9495 14.4956 20.1531 15.7238 19.1025 16.761L14.1763 9H21.9456H21.9434Z" fill="white"/>
</svg>
